<svg width="365" height="74" viewBox="0 0 365 74" fill="none" xmlns="http://www.w3.org/2000/svg">
<g clip-path="url(#clip0)">
<path d="M36.8 61.1C23.4 61.1 12.5 50.2 12.5 36.8C12.5 23.4 23.4 12.5 36.8 12.5C43.2 12.5 49.4 15.1 53.9 19.6L62.7 10.8C48.3 -3.6 25 -3.6 10.7 10.8C-3.59997 25.2 -3.69997 48.5 10.7 62.8C25.1 77.2 48.4 77.2 62.7 62.8L54 54C49.4 58.6 43.3 61.1 36.8 61.1Z" fill="black"/>
<path d="M97.4 61.3998C92.3 61.7998 89.2 61.8998 83.7 58.1998C81.8 56.8998 80 55.2998 78.4 53.5998L65.2 40.0998C63.3 37.9998 61.2 36.1998 59 34.4998C51.6 29.2998 43 30.7998 36.5 33.6998L37.3 39.9998C42.4 39.5998 45.5 39.4998 51 43.1998C52.9 44.4998 54.7 46.0998 56.3 47.7998L69.5 61.2998C71.4 63.3998 73.5 65.1998 75.7 66.8998C83.1 72.0998 91.7 70.5998 98.2 67.6998L97.4 61.3998Z" fill="black"/>
<path d="M141.9 40.8998H139L136.2 30.6998L133.3 40.8998H130.4L126 26.2998H129L132 37.7998L134.8 27.4998H137.7L140.5 37.7998L143.4 26.2998H146.3L141.9 40.8998Z" fill="black"/>
<path d="M161.6 35.0998C161.6 39.7998 158.6 41.2998 155.6 41.2998C152.6 41.2998 149.5 40.1998 149.5 35.0998V26.2998H152.2V35.2998C152.2 37.6998 153.3 39.1998 155.6 39.1998C157.9 39.1998 158.9 37.6998 158.9 35.2998V26.2998H161.6V35.0998Z" fill="black"/>
<path d="M171.5 28.2998H169.1V32.4998H171.5C173.6 32.4998 174.1 31.4998 174.1 30.2998C174.1 29.0998 173.3 28.3998 171.5 28.2998ZM174.9 40.8998L171.9 36.4998C171.1 35.2998 170.5 34.5998 169.8 34.5998H169.1V40.8998H166.4V26.2998H172C174.6 26.2998 176.9 27.5998 176.9 30.3998C176.8 32.4998 175.2 34.1998 173.2 34.2998C173.6 34.6998 174 35.0998 174.3 35.5998L178.1 40.9998L174.9 40.8998Z" fill="black"/>
<path d="M180.3 40.8998V39.0998L188.3 28.3998H180.8V26.2998H191.8V28.0998L183.9 38.7998H192V40.8998H180.3Z" fill="black"/>
<path d="M196 40.8998V26.2998H205.8V28.3998H198.7V32.2998H205.2V34.3998H198.7V38.7998H206.1V40.8998H196Z" fill="black"/>
<path d="M210.1 40.8998V26.2998H212.8V38.7998H220V40.8998H210.1Z" fill="black"/>
<path d="M245.6 40.8998H243.9L243.4 27.7998L238.9 39.4998H237.2L232.7 27.7998L232.2 40.8998H230.6L231.3 26.2998H233.8L238.1 37.4998L242.4 26.2998H244.9L245.6 40.8998Z" fill="black"/>
<path d="M255.9 34.7994C255.9 32.7994 255 31.3994 253.2 31.3994C251.4 31.3994 250.5 33.0994 250.5 34.7994H255.9ZM257.4 35.9994H250.5C250.5 38.7994 251.9 39.9994 253.6 39.9994C254.7 39.9994 255.8 39.3994 256.4 38.4994L257.1 39.4994C256.3 40.5994 255 41.1994 253.6 41.1994C250.2 41.1994 248.9 38.5994 248.9 35.6994C248.9 33.0994 250.1 30.3994 253.2 30.3994C256.3 30.3994 257.4 32.6994 257.4 35.1994V35.9994Z" fill="black"/>
<path d="M267.1 34.1998C266.9 32.7998 265.8 31.5998 264.3 31.4998C262.1 31.4998 261.3 33.5998 261.3 35.5998C261.3 37.5998 262 39.8998 264.5 39.8998C265.8 39.8998 266.9 38.8998 267.1 37.5998V34.1998ZM268.6 40.8998H267.3L267.1 39.3998C266.3 40.3998 265.2 40.9998 263.9 41.0998C261.7 41.0998 259.7 39.2998 259.7 35.5998C259.7 31.5998 262.1 30.2998 264 30.2998C265.3 30.2998 266.5 31.0998 267 32.2998V26.2998H268.6V40.8998Z" fill="black"/>
<path d="M274.2 40.8996H272.6V30.7996H274.2V40.8996ZM273.4 28.0996C272.8 28.0996 272.4 27.5996 272.4 27.0996C272.4 26.5996 272.9 26.0996 273.4 26.0996C273.9 26.0996 274.4 26.5996 274.4 27.0996C274.4 27.5996 274 28.0996 273.4 28.0996Z" fill="black"/>
<path d="M284.6 34.7994C284.6 32.7994 283.7 31.3994 281.9 31.3994C280.1 31.3994 279.2 33.0994 279.2 34.7994H284.6ZM286.1 35.9994H279.2C279.2 38.7994 280.6 39.9994 282.3 39.9994C283.4 39.9994 284.5 39.3994 285.1 38.4994L285.8 39.4994C285 40.5994 283.7 41.1994 282.3 41.1994C278.9 41.1994 277.6 38.5994 277.6 35.6994C277.6 33.0994 278.8 30.3994 281.9 30.3994C285 30.3994 286.1 32.6994 286.1 35.1994V35.9994Z" fill="black"/>
<path d="M297.3 40.8994H295.7V33.9994C295.8 32.7994 295 31.6994 293.8 31.5994C293.7 31.5994 293.5 31.5994 293.4 31.5994C292 31.5994 290.9 32.6994 290.6 34.0994V40.9994H289V30.7994H290.4L290.5 32.2994C291.2 30.9994 292.6 30.1994 294 30.2994C295.7 30.1994 297.1 31.3994 297.3 32.9994C297.3 33.1994 297.3 33.3994 297.3 33.5994V40.8994Z" fill="black"/>
<path d="M307.8 34.1992C307.8 32.6992 306.6 31.5992 305.2 31.4992C303 31.4992 302.1 33.5992 302.1 35.5992C302.1 37.5992 302.8 39.6992 305.2 39.6992C306.5 39.6992 307.7 38.6992 307.8 37.3992V34.1992ZM309.3 40.2992C309.3 43.1992 308.2 45.5992 304.7 45.5992C303.4 45.6992 302.2 45.1992 301.3 44.2992L302 43.0992C302.7 43.8992 303.7 44.2992 304.8 44.2992C307.3 44.2992 307.9 42.6992 307.9 40.1992V39.0992C307.3 40.1992 306.1 40.7992 304.9 40.7992C302.4 40.7992 300.5 39.2992 300.5 35.4992C300.5 31.6992 303 30.1992 304.9 30.1992C306.2 30.1992 307.5 30.9992 308 32.1992L308.1 30.6992H309.5L309.3 40.2992Z" fill="black"/>
<path d="M318.5 32.1994C318.1 31.8994 317.7 31.6994 317.3 31.6994C315.8 31.7994 314.6 32.9994 314.7 34.4994V40.9994H313.1V30.7994H314.5L314.6 32.3994C315.2 31.1994 316.4 30.3994 317.7 30.3994C318.2 30.3994 318.7 30.4994 319.2 30.7994L318.5 32.1994Z" fill="black"/>
<path d="M329.5 40.8992H328.2L328 39.1992C327.3 40.4992 326 41.2992 324.5 41.1992C322.9 41.3992 321.4 40.1992 321.2 38.4992C321.2 38.2992 321.2 38.0992 321.2 37.8992V30.7992H322.8V37.4992C322.7 38.6992 323.6 39.7992 324.8 39.8992C324.9 39.8992 325 39.8992 325.1 39.8992C326.5 39.7992 327.7 38.7992 327.8 37.3992V30.6992H329.4L329.5 40.8992Z" fill="black"/>
<path d="M337.4 31.4998C335.7 31.4998 334.8 33.4998 334.8 34.2998V37.6998C335 38.8998 336.1 39.8998 337.4 39.8998C339.8 39.8998 340.5 37.5998 340.5 35.5998C340.5 33.5998 339.7 31.4998 337.4 31.4998ZM337.9 41.1998C336.7 41.1998 335.5 40.5998 334.8 39.5998V45.4998H333.2V30.7998H334.6L334.7 32.3998C335.3 31.1998 336.5 30.3998 337.9 30.2998C339.8 30.2998 342.1 31.4998 342.1 35.5998C342.1 39.3998 340.1 41.1998 337.9 41.1998Z" fill="black"/>
<path d="M349.3 31.4998C347.6 31.4998 346.7 33.4998 346.7 34.2998V37.6998C346.9 38.8998 348 39.8998 349.3 39.8998C351.7 39.8998 352.4 37.5998 352.4 35.5998C352.4 33.5998 351.6 31.4998 349.3 31.4998ZM349.8 41.1998C348.6 41.1998 347.4 40.5998 346.7 39.5998V45.4998H345.1V30.7998H346.5L346.6 32.3998C347.2 31.1998 348.4 30.3998 349.8 30.2998C351.7 30.2998 354 31.4998 354 35.5998C354 39.3998 352 41.1998 349.8 41.1998Z" fill="black"/>
<path d="M363.5 34.7994C363.5 32.7994 362.6 31.3994 360.8 31.3994C359 31.3994 358.1 33.0994 358.1 34.7994H363.5ZM365 35.9994H358.1C358.1 38.7994 359.5 39.9994 361.2 39.9994C362.3 39.9994 363.4 39.3994 364 38.4994L364.7 39.4994C363.9 40.5994 362.6 41.1994 361.2 41.1994C357.8 41.1994 356.5 38.5994 356.5 35.6994C356.5 33.0994 357.7 30.3994 360.8 30.3994C363.9 30.3994 365 32.6994 365 35.1994V35.9994V35.9994Z" fill="black"/>
</g>
<defs>
<clipPath id="clip0">
<rect width="365" height="73.6" fill="white"/>
</clipPath>
</defs>
</svg>
