<svg width="445" height="49" viewBox="0 0 445 49" fill="none" xmlns="http://www.w3.org/2000/svg">
<path d="M23.9766 38.1875C15.6016 38.1875 8.78908 31.375 8.78908 23C8.78908 14.625 15.6016 7.8125 23.9766 7.8125C27.9766 7.8125 31.8516 9.4375 34.6641 12.25L40.1641 6.75C31.1641 -2.25 16.6016 -2.25 7.66408 6.75C-1.27342 15.75 -1.33592 30.3125 7.66408 39.25C16.6641 48.25 31.2266 48.25 40.1641 39.25L34.7266 33.75C31.8516 36.625 28.0391 38.1875 23.9766 38.1875Z" fill="white"/>
<path d="M61.8516 38.3746C58.6641 38.6246 56.7266 38.6871 53.2891 36.3746C52.1016 35.5621 50.9766 34.5621 49.9766 33.4996L41.7266 25.0621C40.5391 23.7496 39.2266 22.6246 37.8516 21.5621C33.2266 18.3121 27.8516 19.2496 23.7891 21.0621L24.2891 24.9996C27.4766 24.7496 29.4141 24.6871 32.8516 26.9996C34.0391 27.8121 35.1641 28.8121 36.1641 29.8746L44.4141 38.3121C45.6016 39.6246 46.9141 40.7496 48.2891 41.8121C52.9141 45.0621 58.2891 44.1246 62.3516 42.3121L61.8516 38.3746Z" fill="white"/>
<path d="M102.188 41.025H97.7319L93.4295 25.3518L88.9734 41.025H84.5173L77.7563 18.5908H82.3661L86.9759 36.2615L91.2783 20.4347H95.7344L100.037 36.2615L104.493 18.5908H108.949L102.188 41.025Z" fill="white"/>
<path d="M132.459 32.1108C132.459 39.3328 127.849 41.6376 123.239 41.6376C118.63 41.6376 113.866 39.9474 113.866 32.1108V18.5889H118.015V32.4181C118.015 36.1059 119.705 38.4108 123.239 38.4108C126.773 38.4108 128.31 36.1059 128.31 32.4181V18.5889H132.459V32.1108Z" fill="white"/>
<path d="M147.671 21.6611H143.983V28.1147H147.671C150.898 28.1147 151.666 26.5781 151.666 24.7342C151.666 22.8903 150.437 21.8147 147.671 21.6611ZM152.895 41.022L148.286 34.2611C147.056 32.4171 146.134 31.3415 145.059 31.3415H143.983V41.022H139.834V18.5879H148.439C152.434 18.5879 155.969 20.5855 155.969 24.8879C155.815 28.1147 153.356 30.7269 150.283 30.8806C150.898 31.4952 151.513 32.1098 151.973 32.8781L157.813 41.1757L152.895 41.022Z" fill="white"/>
<path d="M161.193 41.025V38.2591L173.485 21.8176H161.961V18.5908H178.863V21.3567L166.724 37.7981H179.171V41.025H161.193Z" fill="white"/>
<path d="M185.317 41.025V18.5908H200.376V21.8176H189.466V27.8103H199.454V31.0372H189.466V37.7981H200.837V41.025H185.317Z" fill="white"/>
<path d="M206.983 41.025V18.5908H211.132V37.7981H222.195V41.025H206.983Z" fill="white"/>
<path d="M261.532 41.025H258.92L258.151 20.8957L251.237 38.8737H248.625L241.71 20.8957L240.942 41.025H238.483L239.559 18.5908H243.4L250.008 35.8006L256.615 18.5908H260.456L261.532 41.025Z" fill="white"/>
<path d="M277.359 31.6496C277.359 28.5765 275.976 26.4253 273.21 26.4253C270.444 26.4253 269.061 29.0374 269.061 31.6496H277.359ZM279.664 33.4935H269.061C269.061 37.796 271.212 39.6399 273.825 39.6399C275.515 39.6399 277.205 38.7179 278.127 37.335L279.203 38.8716C277.973 40.5618 275.976 41.4838 273.825 41.4838C268.6 41.4838 266.603 37.4887 266.603 33.0326C266.603 29.0375 268.446 24.8887 273.21 24.8887C277.973 24.8887 279.664 28.4228 279.664 32.2643V33.4935Z" fill="white"/>
<path d="M294.569 30.7298C294.261 28.5786 292.571 26.7347 290.266 26.5811C286.886 26.5811 285.656 29.8079 285.656 32.8811C285.656 35.9542 286.732 39.4884 290.574 39.4884C292.571 39.4884 294.261 37.9518 294.569 35.9542V30.7298ZM296.874 41.025H294.876L294.569 38.7201C293.339 40.2567 291.649 41.1786 289.652 41.3323C286.271 41.3323 283.198 38.5664 283.198 32.8811C283.198 26.7347 286.886 24.7372 289.805 24.7372C291.803 24.7372 293.647 25.9664 294.415 27.8103V18.5908H296.874V41.025Z" fill="white"/>
<path d="M305.478 41.0237H303.02V25.5042H305.478V41.0237ZM304.249 21.3554C303.327 21.3554 302.712 20.5871 302.712 19.8188C302.712 19.0505 303.481 18.2822 304.249 18.2822C305.017 18.2822 305.786 19.0505 305.786 19.8188C305.786 20.5871 305.171 21.3554 304.249 21.3554Z" fill="white"/>
<path d="M321.459 31.6496C321.459 28.5765 320.076 26.4253 317.31 26.4253C314.544 26.4253 313.161 29.0374 313.161 31.6496H321.459ZM323.764 33.4935H313.161C313.161 37.796 315.312 39.6399 317.925 39.6399C319.615 39.6399 321.305 38.7179 322.227 37.335L323.303 38.8716C322.073 40.5618 320.076 41.4838 317.925 41.4838C312.7 41.4838 310.703 37.4887 310.703 33.0326C310.703 29.0375 312.547 24.8887 317.31 24.8887C322.073 24.8887 323.764 28.4228 323.764 32.2643V33.4935Z" fill="white"/>
<path d="M340.973 41.0243H338.515V30.4219C338.668 28.578 337.439 26.8878 335.595 26.7341C335.442 26.7341 335.134 26.7341 334.981 26.7341C332.829 26.7341 331.139 28.4243 330.678 30.5756V41.178H328.22V25.5048H330.371L330.524 27.8097C331.6 25.8122 333.751 24.5829 335.903 24.7365C338.515 24.5829 340.666 26.4268 340.973 28.8853C340.973 29.1926 340.973 29.5 340.973 29.8073V41.0243Z" fill="white"/>
<path d="M357.107 30.7284C357.107 28.4235 355.264 26.7332 353.112 26.5796C349.732 26.5796 348.349 29.8064 348.349 32.8796C348.349 35.9528 349.425 39.1796 353.112 39.1796C355.11 39.1796 356.954 37.643 357.107 35.6454V30.7284ZM359.412 40.1015C359.412 44.5576 357.722 48.2454 352.344 48.2454C350.346 48.3991 348.503 47.6308 347.12 46.2479L348.195 44.404C349.271 45.6332 350.807 46.2479 352.498 46.2479C356.339 46.2479 357.261 43.7893 357.261 39.9479V38.2576C356.339 39.9479 354.495 40.8698 352.651 40.8698C348.81 40.8698 345.89 38.5649 345.89 32.7259C345.89 26.8869 349.732 24.582 352.651 24.582C354.649 24.582 356.646 25.8113 357.415 27.6552L357.568 25.3503H359.72L359.412 40.1015Z" fill="white"/>
<path d="M373.549 27.6545C372.934 27.1935 372.32 26.8862 371.705 26.8862C369.4 27.0399 367.556 28.8838 367.71 31.1887V41.1765H365.251V25.5033H367.403L367.556 27.9618C368.478 26.1179 370.322 24.8887 372.32 24.8887C373.088 24.8887 373.856 25.0423 374.625 25.5033L373.549 27.6545Z" fill="white"/>
<path d="M390.451 41.0237H388.454L388.146 38.4116C387.071 40.4091 385.073 41.6384 382.768 41.4847C380.31 41.792 378.005 39.9481 377.698 37.3359C377.698 37.0286 377.698 36.7213 377.698 36.414V25.5042H380.156V35.7994C380.002 37.6433 381.385 39.3335 383.229 39.4872C383.383 39.4872 383.537 39.4872 383.69 39.4872C385.842 39.3335 387.685 37.7969 387.839 35.6457V25.3506H390.298L390.451 41.0237Z" fill="white"/>
<path d="M402.59 26.5802C399.978 26.5802 398.595 29.6534 398.595 30.8827V36.1071C398.903 37.951 400.593 39.4875 402.59 39.4875C406.278 39.4875 407.354 35.9534 407.354 32.8802C407.354 29.8071 406.125 26.5802 402.59 26.5802ZM403.359 41.4851C401.515 41.4851 399.671 40.5631 398.595 39.0266V48.0924H396.137V25.5046H398.288L398.442 27.9632C399.364 26.1193 401.208 24.89 403.359 24.7363C406.278 24.7363 409.812 26.5802 409.812 32.8802C409.812 38.7192 406.739 41.4851 403.359 41.4851Z" fill="white"/>
<path d="M420.876 26.5802C418.264 26.5802 416.881 29.6534 416.881 30.8827V36.1071C417.188 37.951 418.878 39.4875 420.876 39.4875C424.564 39.4875 425.639 35.9534 425.639 32.8802C425.639 29.8071 424.41 26.5802 420.876 26.5802ZM421.644 41.4851C419.8 41.4851 417.956 40.5631 416.881 39.0266V48.0924H414.422V25.5046H416.573L416.727 27.9632C417.649 26.1193 419.493 24.89 421.644 24.7363C424.564 24.7363 428.098 26.5802 428.098 32.8802C428.098 38.7192 425.025 41.4851 421.644 41.4851Z" fill="white"/>
<path d="M442.695 31.6496C442.695 28.5765 441.312 26.4253 438.546 26.4253C435.781 26.4253 434.398 29.0374 434.398 31.6496H442.695ZM445 33.4935H434.398C434.398 37.796 436.549 39.6399 439.161 39.6399C440.851 39.6399 442.542 38.7179 443.463 37.335L444.539 38.8716C443.31 40.5618 441.312 41.4838 439.161 41.4838C433.937 41.4838 431.939 37.4887 431.939 33.0326C431.939 29.0375 433.783 24.8887 438.546 24.8887C443.31 24.8887 445 28.4228 445 32.2643V33.4935V33.4935Z" fill="white"/>
</svg>
