<?xml version="1.0" encoding="UTF-8"?>
<svg width="301px" height="117px" viewBox="0 0 301 117" version="1.1" xmlns="http://www.w3.org/2000/svg" xmlns:xlink="http://www.w3.org/1999/xlink">
    <!-- Generator: Sketch 64 (93537) - https://sketch.com -->
    <title>logo_dcv</title>
    <desc>Created with Sketch.</desc>
    <g id="logo_dcv" stroke="none" stroke-width="1" fill="none" fill-rule="evenodd">
        <polygon id="Path" fill="#ffffff" points="250.355824 91.919822 219.195989 1.52599333 199.759784 1.52599333 241.10018 115.058007 259.611006 115.058007 300.951402 1.52599333 281.515197 1.52599333"></polygon>
        <path d="M120.473284,66.930416 L120.473284,49.653584 C120.473284,29.600614 133.430445,16.951604 153.175264,16.951604 C166.749653,16.951604 179.707277,23.1215707 183.717871,37.313188 L201.611468,37.313188 C198.834868,19.7282047 183.717871,0.292 153.175264,0.292 C124.792029,0.292 102.579224,16.64299 102.579224,48.4195907 L102.579224,68.1644093 C102.579224,99.94101 124.792029,116.292 153.175264,116.292 C183.717871,116.292 198.834868,96.8557953 201.611468,79.270812 L183.717871,79.270812 C179.707277,93.4624293 166.749653,99.632396 153.175264,99.632396 C133.430445,99.632396 120.473284,86.983386 120.473284,66.930416 Z" id="Path" fill="#ffffff"></path>
        <path d="M46.2763693,1.52599333 C76.2022113,1.52599333 95.021188,17.8769833 95.021188,49.653584 L95.021188,49.653584 L95.021188,66.930416 C95.021188,98.7070167 76.2022113,115.058007 46.2763693,115.058007 L46.2763693,115.058007 L0,115.058007 L0,1.52599333 Z M43.1911547,18.1855973 L17.8935973,18.1855973 L17.8935973,98.3984027 L43.1911547,98.3984027 C63.5532013,98.3984027 77.1275907,85.7493927 77.1275907,65.6964227 L77.1275907,65.6964227 L77.1275907,50.8875773 C77.1275907,30.8346073 63.5532013,18.1855973 43.1911547,18.1855973 L43.1911547,18.1855973 Z" id="Combined-Shape" fill="#ffffff"></path>
    </g>
</svg>