<svg width="24" height="24" viewBox="0 0 24 24" fill="none" xmlns="http://www.w3.org/2000/svg">

<path d="M5.5 1H16.5C19.2614 1 21.5 3.23858 21.5 6V17C21.5 19.7614 19.2614 22 16.5 22H5.5C2.73858 22 0.5 19.7614 0.5 17V6C0.5 3.23858 2.73858 1 5.5 1Z" stroke="#000" stroke-width="1" />
<path d="M14.9567 10.9133C15.0801 11.7455 14.938 12.5955 14.5505 13.3423C14.163 14.0891 13.5499 14.6947 12.7984 15.0729C12.0468 15.4512 11.1952 15.5829 10.3645 15.4492C9.53386 15.3155 8.7665 14.9233 8.17158 14.3284C7.57665 13.7335 7.18447 12.9661 7.05081 12.1355C6.91714 11.3048 7.0488 10.4532 7.42706 9.70164C7.80532 8.95012 8.41092 8.33701 9.15772 7.94951C9.90452 7.56201 10.7545 7.41986 11.5867 7.54327C12.4357 7.66915 13.2216 8.06473 13.8284 8.67158C14.4353 9.27842 14.8308 10.0643 14.9567 10.9133Z" stroke="#000" stroke-width="0.75" />
</svg>
