<svg width="24" height="24" viewBox="0 0 24 24" fill="none" xmlns="http://www.w3.org/2000/svg">
<path d="M3.02692 9.11055L4.04598 8.26263L4.04676 8.26198L5.30041 7.21241C5.85375 6.76853 6.33298 6.43304 6.73968 6.20121C7.14982 5.96742 7.46489 5.85151 7.69474 5.82254C7.75608 5.81614 7.8206 5.81388 7.89277 5.81388C8.40407 5.81388 8.79942 5.99276 9.10814 6.34911C9.42783 6.71813 9.67397 7.30085 9.81637 8.13689C9.98095 9.12595 10.1175 9.93183 10.2285 10.5518C10.3347 11.1653 10.4264 11.6102 10.5031 11.8763C10.7038 12.7018 10.9176 13.3466 11.1504 13.7932C11.267 14.017 11.3971 14.2082 11.5466 14.3477C11.6987 14.4896 11.8876 14.5924 12.1093 14.5956V14.5956H12.1141C12.2846 14.5956 12.4448 14.5324 12.5859 14.4486C12.729 14.3635 12.8746 14.244 13.0221 14.0994C13.317 13.8103 13.6516 13.3893 14.0249 12.8475L14.0249 12.8475L14.0291 12.8411C14.394 12.2844 14.6796 11.7925 14.8815 11.3671C15.0795 10.95 15.207 10.5762 15.2388 10.2566C15.2563 10.1343 15.2627 10.02 15.2627 9.91515C15.2627 9.49669 15.1463 9.12439 14.8586 8.86258C14.5768 8.60619 14.1869 8.50752 13.7504 8.50752C13.509 8.50752 13.2624 8.53538 13.0104 8.58854C13.3844 7.67982 13.8734 6.99524 14.4672 6.51706C15.1824 5.94118 16.0763 5.64304 17.1708 5.639H17.3602C18.1348 5.66017 18.6619 5.88804 19.0025 6.27461C19.3493 6.66816 19.5516 7.28083 19.5557 8.16941C19.5557 8.28435 19.5517 8.40562 19.5453 8.53244L19.5452 8.53379C19.5115 9.25391 19.2242 10.1368 18.6484 11.1915C18.0743 12.2429 17.2249 13.4447 16.093 14.7979L16.0913 14.7999C14.9254 16.2159 13.8593 17.2638 12.8937 17.9562C11.926 18.6501 11.0848 18.9688 10.3613 18.9723C9.57329 18.9718 8.80541 18.2998 8.13272 16.5734L7.42349 14.189L7.42322 14.1881L6.71842 11.7939L6.71797 11.7924C6.45489 10.9138 6.17551 10.2287 5.87275 9.75647C5.57865 9.29776 5.20458 8.95306 4.73075 8.95306C4.62117 8.95306 4.5108 8.99747 4.44012 9.02831C4.35311 9.06627 4.2497 9.1197 4.13268 9.18536C3.94991 9.28792 3.72002 9.42821 3.44416 9.60488L3.02692 9.11055Z" stroke="black" stroke-width="0.666667"/>
</svg>
